<svg id="Grupo_1" data-name="Grupo 1" xmlns="http://www.w3.org/2000/svg" width="148.953" height="116.523" viewBox="0 0 148.953 116.523">
  <path id="Caminho_1" data-name="Caminho 1" d="M447.729,163.75l-.035,0c0-.231.035-.456.035-.688a33.111,33.111,0,1,0-66.222,0c0,.022,0,.042,0,.064a27.028,27.028,0,0,0,1.267,54.026h64.952a26.7,26.7,0,1,0,0-53.4Z" transform="translate(-355.732 -129.953)" fill="#baddff"/>
  <path id="Caminho_2" data-name="Caminho 2" d="M480.855,195.856l-.035,0c0-.231.035-.456.035-.688a33.111,33.111,0,1,0-66.222,0c0,.022,0,.042,0,.064A27.028,27.028,0,0,0,415.9,249.26h64.952a26.7,26.7,0,1,0,0-53.4Z" transform="translate(-358.604 -132.737)" fill="#55a4f2"/>
</svg>
